HIERARCHY
ROOT Hips
{
	OFFSET -0.001795 -0.223333 0.028219
	CHANNELS 6 Xposition Yposition Zposition Zrotation Yrotation Xrotation 
	JOINT LeftUpLeg
	{
		OFFSET 0.069520 -0.091406 -0.006815
		CHANNELS 3 Zrotation Yrotation Xrotation
		JOINT LeftLeg
		{
			OFFSET 0.034277 -0.375199 -0.004496
			CHANNELS 3 Zrotation Yrotation Xrotation
			JOINT LeftFoot
			{
				OFFSET -0.013596 -0.397961 -0.043693
				CHANNELS 3 Zrotation Yrotation Xrotation
				JOINT LeftToe
				{
					OFFSET 0.026358 -0.055791 0.119288
					CHANNELS 3 Zrotation Yrotation Xrotation
					End Site
					{
						OFFSET 0.000000 0.000000 0.000000
					}
				}
			}
		}
	}
	JOINT RightUpLeg
	{
		OFFSET -0.067670 -0.090522 -0.004320
		CHANNELS 3 Zrotation Yrotation Xrotation
		JOINT RightLeg
		{
			OFFSET -0.038290 -0.382569 -0.008850
			CHANNELS 3 Zrotation Yrotation Xrotation
			JOINT RightFoot
			{
				OFFSET 0.015774 -0.398415 -0.042312
				CHANNELS 3 Zrotation Yrotation Xrotation
				JOINT RightToe
				{
					OFFSET -0.025372 -0.048144 0.123348
					CHANNELS 3 Zrotation Yrotation Xrotation
					End Site
					{
						OFFSET 0.000000 0.000000 0.000000
					}
				}
			}
		}
	}
	JOINT Spine
	{
		OFFSET -0.002533 0.108963 -0.026696
		CHANNELS 3 Zrotation Yrotation Xrotation
		JOINT Spine1
		{
			OFFSET 0.005487 0.135180 0.001092
			CHANNELS 3 Zrotation Yrotation Xrotation
			JOINT Spine2
			{
				OFFSET 0.001457 0.052922 0.025425
				CHANNELS 3 Zrotation Yrotation Xrotation
				JOINT Neck
				{
					OFFSET -0.002778 0.213870 -0.042857
					CHANNELS 3 Zrotation Yrotation Xrotation
					JOINT Head
					{
						OFFSET 0.005152 0.064970 0.051349
						CHANNELS 3 Zrotation Yrotation Xrotation
						End Site
						{
							OFFSET 0.000000 0.000000 0.000000
						}
					}
				}
				JOINT LeftShoulder
				{
					OFFSET 0.078845 0.121749 -0.034090
					CHANNELS 3 Zrotation Yrotation Xrotation
					JOINT LeftArm
					{
						OFFSET 0.090977 0.030469 -0.008868
						CHANNELS 3 Zrotation Yrotation Xrotation
						JOINT LeftForeArm
						{
							OFFSET 0.259612 -0.012772 -0.027456
							CHANNELS 3 Zrotation Yrotation Xrotation
							JOINT LeftHand
							{
								OFFSET 0.249234 0.008986 -0.001171
								CHANNELS 3 Zrotation Yrotation Xrotation
								End Site
								{
									OFFSET 0.000000 0.000000 0.000000
								}
							}
						}
					}
				}
				JOINT RightShoulder
				{
					OFFSET -0.081759 0.118833 -0.038615
					CHANNELS 3 Zrotation Yrotation Xrotation
					JOINT RightArm
					{
						OFFSET -0.096012 0.032551 -0.009143
						CHANNELS 3 Zrotation Yrotation Xrotation
						JOINT RightForeArm
						{
							OFFSET -0.253742 -0.013329 -0.021401
							CHANNELS 3 Zrotation Yrotation Xrotation
							JOINT RightHand
							{
								OFFSET -0.255298 0.007772 -0.005559
								CHANNELS 3 Zrotation Yrotation Xrotation
								End Site
								{
									OFFSET 0.000000 0.000000 0.000000
								}
							}
						}
					}
				}
			}
		}
	}
}
MOTION
Frames: 10
Frame Time: 0.050000
0.000000 0.952576 0.000000 -0.284591 -4.574812 3.468264 2.077699 -0.538763 -7.088247 7.341023 -0.735987 -0.997659 0.648214 6.089543 15.946863 0.000000 0.000000 0.000000 -0.424271 0.824983 -8.352755 -3.925161 0.614918 2.991658 6.101602 8.102253 9.306308 0.000000 0.000000 0.000000 5.048249 -0.281601 2.213202 -2.287750 1.087292 -0.442791 -3.926589 2.649736 6.458433 6.809086 -4.458274 -6.529427 0.000000 0.000000 0.000000 -13.519320 -11.903451 4.326102 -40.253270 -16.887053 0.459863 -79.043046 -57.596914 51.919309 0.000000 0.000000 0.000000 7.240715 3.204134 0.808391 32.995394 -6.140963 -4.673957 82.737042 38.893553 35.411502 0.000000 0.000000 0.000000 
0.001678 0.950172 0.001245 -0.715143 -5.854608 4.090257 2.370425 -0.492697 -6.671831 7.485937 -0.634577 -2.242700 1.415824 6.990574 15.591011 0.000000 0.000000 0.000000 -0.555330 0.826426 -8.386788 -3.158218 0.420608 1.711135 6.672408 9.183411 9.302059 0.000000 0.000000 0.000000 5.736327 -0.300999 2.056338 -2.909280 1.362382 -1.161305 -4.684607 4.984290 6.880054 9.322356 -6.592609 -4.965561 0.000000 0.000000 0.000000 -13.553096 -10.556016 3.331482 -40.743519 -15.744661 0.158007 -87.683721 -55.505547 56.102781 0.000000 0.000000 0.000000 6.536109 0.569027 -0.090666 31.703861 -10.331742 -5.448366 90.452629 32.735179 34.331774 0.000000 0.000000 0.000000 
0.002962 0.949051 0.002238 -0.567808 -4.798304 4.404973 1.897936 -0.560999 -7.226775 7.928808 -0.670103 -2.191531 0.950377 6.333853 15.161488 0.000000 0.000000 0.000000 -0.798133 0.818350 -8.389045 -3.857021 0.606785 3.026200 6.076161 10.522201 6.013162 0.000000 0.000000 0.000000 6.547594 -0.289289 1.538840 -3.007427 1.417840 -0.717809 -6.481906 4.740088 6.686820 9.630963 -7.232109 -3.107115 0.000000 0.000000 0.000000 -14.396093 -8.816275 2.322938 -40.030077 -11.727606 -1.062460 -92.908155 -53.227647 57.720963 0.000000 0.000000 0.000000 6.821251 -1.160091 -0.778806 29.747046 -16.646724 -6.295415 99.876786 29.295990 35.949088 0.000000 0.000000 0.000000 
0.003468 0.947853 0.003539 -0.647795 -5.237634 4.960006 2.519856 -0.564102 -7.774718 6.932616 -0.603361 -1.967032 1.305882 6.714731 14.708146 0.000000 0.000000 0.000000 -1.343530 0.887544 -9.263772 -3.190650 0.593848 4.012739 6.224782 11.732425 4.957735 0.000000 0.000000 0.000000 6.391984 -0.263701 1.224392 -3.694388 1.702644 -1.896413 -5.795011 5.472232 7.797306 10.536514 -7.866125 -3.644507 0.000000 0.000000 0.000000 -15.347236 -6.115451 0.927531 -39.702460 -7.704197 -2.358198 -97.753764 -49.668844 57.880638 0.000000 0.000000 0.000000 5.908947 -4.053170 -1.893523 26.571065 -19.693272 -6.046407 108.861410 24.251027 34.601619 0.000000 0.000000 0.000000 
0.003442 0.947728 0.005165 -0.715328 -5.323498 4.785879 2.160122 -0.571024 -7.605656 7.673955 -0.700954 -1.693442 1.375677 6.784723 14.591851 0.000000 0.000000 0.000000 -1.531569 0.853665 -8.972969 -2.735534 0.533159 4.010129 6.263244 11.853839 4.912402 0.000000 0.000000 0.000000 6.729689 -0.279713 1.332938 -4.144006 1.923774 -1.428661 -6.165435 4.854572 7.601065 10.290402 -7.931599 -2.624073 0.000000 0.000000 0.000000 -15.751471 -4.031329 -0.019201 -39.206073 -2.507483 -3.898240 -102.358697 -50.699418 63.455458 0.000000 0.000000 0.000000 4.876810 -6.281386 -2.732733 25.529445 -23.391111 -6.326783 116.580788 20.096067 32.341283 0.000000 0.000000 0.000000 
0.003062 0.947585 0.007097 -0.756233 -5.661349 4.663968 2.052157 -0.562051 -7.420631 7.945381 -0.758082 -1.418955 1.581087 7.035214 14.476147 0.000000 0.000000 0.000000 -1.802682 0.835864 -8.864738 -2.171693 0.470637 4.197731 6.387962 12.178698 4.857683 0.000000 0.000000 0.000000 6.766386 -0.278585 1.351481 -4.472732 2.061216 -1.812267 -5.893173 4.944830 7.819799 10.435697 -8.143350 -2.307185 0.000000 0.000000 0.000000 -15.744556 -2.607954 -0.683927 -40.939402 1.019901 -5.213677 -101.827166 -51.556995 64.085015 0.000000 0.000000 0.000000 4.281021 -7.730946 -3.243261 24.903389 -26.057400 -6.547218 121.933314 16.821241 29.547637 0.000000 0.000000 0.000000 
0.002438 0.947416 0.009020 -0.778532 -5.828218 4.634791 2.020724 -0.498863 -6.481721 8.093919 -0.636473 -2.725418 1.605601 7.091616 14.680958 0.000000 0.000000 0.000000 -1.586117 0.817111 -8.584036 -2.475434 0.493863 3.951268 6.430789 12.358826 4.748908 0.000000 0.000000 0.000000 6.859848 -0.218048 0.747191 -4.767855 2.222639 -1.206773 -6.080521 4.672792 7.427959 10.135113 -7.913443 -2.197717 0.000000 0.000000 0.000000 -15.842279 -1.105255 -1.391327 -41.986242 2.766441 -5.908946 -100.137581 -52.520324 63.765083 0.000000 0.000000 0.000000 3.837291 -8.070650 -3.327850 25.203050 -26.705404 -6.740412 123.752397 16.059568 28.974024 0.000000 0.000000 0.000000 
0.001829 0.946698 0.010441 -1.031454 -5.623908 4.501368 2.260986 -0.438713 -5.752149 8.238378 -0.551920 -3.610626 1.497961 6.927948 14.555493 0.000000 0.000000 0.000000 -1.330661 0.799150 -8.322911 -2.353520 0.483461 4.026362 6.287830 12.257043 4.485737 0.000000 0.000000 0.000000 6.697684 -0.228392 0.913294 -4.127149 1.913354 -1.539923 -6.720961 4.977872 7.468091 10.867221 -8.259823 -3.166552 0.000000 0.000000 0.000000 -15.622575 -1.189337 -1.429574 -43.778946 3.971795 -6.587936 -98.403106 -53.696505 63.283991 0.000000 0.000000 0.000000 3.239382 -7.933918 -3.186163 26.206440 -26.132597 -6.952869 124.616430 15.852603 29.619006 0.000000 0.000000 0.000000 
0.001102 0.946097 0.010916 -1.122165 -5.682880 4.503298 2.171138 -0.416724 -5.381755 8.663335 -0.522440 -4.164390 1.515360 6.953864 14.585199 0.000000 0.000000 0.000000 -0.997741 0.776187 -7.990023 -2.700901 0.492460 3.502122 6.293036 12.355966 4.378017 0.000000 0.000000 0.000000 6.892739 -0.232877 0.913103 -4.003320 1.850698 -1.702888 -7.067484 5.130232 7.430742 11.301015 -8.387262 -4.019247 0.000000 0.000000 0.000000 -15.719675 -2.113724 -1.022089 -44.293694 2.599822 -6.196634 -93.763384 -55.478050 61.029580 0.000000 0.000000 0.000000 3.374107 -6.910895 -2.804033 26.040768 -23.489181 -6.472967 124.014492 15.892341 29.590850 0.000000 0.000000 0.000000 
0.000310 0.945252 0.010616 -1.206147 -6.133359 4.485690 2.257989 -0.387761 -5.034989 8.761269 -0.486926 -4.572940 1.751406 7.258002 14.572172 0.000000 0.000000 0.000000 -0.729179 0.760126 -7.756392 -2.972526 0.489922 3.005285 6.454312 12.787718 4.296681 0.000000 0.000000 0.000000 6.754823 -0.264072 1.279426 -3.582923 1.637190 -2.322273 -7.653443 5.907830 7.459283 12.333536 -9.099954 -4.384977 0.000000 0.000000 0.000000 -15.612118 -3.227797 -0.586738 -44.038236 1.889700 -5.895895 -90.870894 -55.858388 58.640256 0.000000 0.000000 0.000000 3.995594 -5.435729 -2.273366 25.916108 -20.590763 -5.979298 122.382802 15.985866 29.397168 0.000000 0.000000 0.000000 
